<svg xmlns="http://www.w3.org/2000/svg" viewBox="0 0 500 500" width="100%" height="100%">
  <path d="M 150 140 L 30 250 L 150 360 L 190 360 L 70 250 L 190 140 Z" fill="#1D70B8" />

  <path d="M 350 140 L 470 250 L 350 360 L 310 360 L 430 250 L 310 140 Z" fill="#33414E" />

  <path d="M 210 140 H 280 V 290 A 55 55 0 0 1 170 290 V 260 H 215 V 290 A 10 10 0 0 0 235 290 V 185 H 210 Z" fill="#1D70B8" />

  <path d="M 292 180 L 322 152 V 295 A 85 85 0 0 1 160 365 C 230 375 292 340 292 295 Z" fill="#33414E" />
</svg>